HIERARCHY
ROOT Hips
{
 OFFSET 0.000000 0.000000 0.000000
 CHANNELS 6 Xposition Yposition Zposition Yrotation Xrotation Zrotation
 JOINT Chest
 {
  OFFSET 0.000000 9.581000 -0.001100
  CHANNELS 3 Yrotation Xrotation Zrotation
  JOINT Chest2
  {
   OFFSET 0.000000 9.561100 0.002200
   CHANNELS 3 Yrotation Xrotation Zrotation
   JOINT Chest3
   {
    OFFSET 0.000000 9.521100 0.000000
    CHANNELS 3 Yrotation Xrotation Zrotation
    JOINT Chest4
    {
     OFFSET 0.000000 9.511400 0.000000
     CHANNELS 3 Yrotation Xrotation Zrotation
     JOINT Neck
     {
      OFFSET 0.000000 14.375100 0.000000
      CHANNELS 3 Yrotation Xrotation Zrotation
      JOINT Head
      {
       OFFSET 0.000000 8.901200 0.004600
       CHANNELS 3 Yrotation Xrotation Zrotation
       End Site
       {
        OFFSET 0.000000 16.962200 0.002400
       }
      }
     }
     JOINT RightCollar
     {
      OFFSET -2.920100 9.518800 0.000000
      CHANNELS 3 Yrotation Xrotation Zrotation
      JOINT RightShoulder
      {
       OFFSET -13.664500 0.000000 0.000000
       CHANNELS 3 Yrotation Xrotation Zrotation
       JOINT RightElbow
       {
        OFFSET 0.000000 -29.999200 0.000000
        CHANNELS 3 Yrotation Xrotation Zrotation
        JOINT RightWrist
        {
         OFFSET 0.000000 -24.253600 0.000000
         CHANNELS 3 Yrotation Xrotation Zrotation
         End Site
         {
          OFFSET 0.000000 -17.918900 0.000000
         }
        }
       }
      }
     }
     JOINT LeftCollar
     {
      OFFSET 2.920100 9.518800 0.000000
      CHANNELS 3 Yrotation Xrotation Zrotation
      JOINT LeftShoulder
      {
       OFFSET 13.664500 0.000000 0.000000
       CHANNELS 3 Yrotation Xrotation Zrotation
       JOINT LeftElbow
       {
        OFFSET 0.000000 -29.999200 0.000000
        CHANNELS 3 Yrotation Xrotation Zrotation
        JOINT LeftWrist
        {
         OFFSET 0.000000 -24.253600 0.000000
         CHANNELS 3 Yrotation Xrotation Zrotation
         End Site
         {
          OFFSET 0.000000 -17.918900 0.000000
         }
        }
       }
      }
     }
    }
   }
  }
 }
 JOINT RightHip
 {
  OFFSET -7.797300 0.005300 0.000500
  CHANNELS 3 Yrotation Xrotation Zrotation
  JOINT RightKnee
  {
   OFFSET 0.000000 -40.663400 -0.000500
   CHANNELS 3 Yrotation Xrotation Zrotation
   JOINT RightAnkle
   {
    OFFSET 0.000000 -39.523700 -0.000900
    CHANNELS 3 Yrotation Xrotation Zrotation
    JOINT RightToe
    {
     OFFSET 0.000000 -6.418000 14.485300
     CHANNELS 3 Yrotation Xrotation Zrotation
     End Site
     {
      OFFSET 0.000000 -1.465200 6.326400
     }
    }
   }
  }
 }
 JOINT LeftHip
 {
  OFFSET 7.797300 0.005300 0.000500
  CHANNELS 3 Yrotation Xrotation Zrotation
  JOINT LeftKnee
  {
   OFFSET 0.000000 -40.663400 -0.000500
   CHANNELS 3 Yrotation Xrotation Zrotation
   JOINT LeftAnkle
   {
    OFFSET 0.000000 -39.523700 -0.000900
    CHANNELS 3 Yrotation Xrotation Zrotation
    JOINT LeftToe
    {
     OFFSET 0.000000 -6.418000 14.485300
     CHANNELS 3 Yrotation Xrotation Zrotation
     End Site
     {
      OFFSET 0.000000 -1.465200 6.326400
     }
    }
   }
  }
 }
}
MOTION
Frames: 16
Frame Time: 0.008333
-22.454126 126.422886 61.480669 175.097656 -28.324774 -2.978875 -0.632868 19.528979 1.274036 -0.110637 2.355914 0.164961 -0.153256 3.894075 0.267958 -0.573720 16.869099 1.110995 4.405997 20.846967 -0.191935 4.704179 -3.349381 -1.233978 -6.346204 -0.311397 0.387746 -7.636029 -2.902271 -3.992079 111.623861 -79.297319 -96.045713 -6.729559 -19.201064 -33.164860 -6.487296 1.308530 0.624305 10.699098 -6.369245 4.451693 19.008180 -82.644253 -20.913757 -3.646671 -25.186350 24.667187 -8.954449 -50.012167 7.496823 -164.832280 75.215885 -157.430438 11.009260 -21.365669 -10.229313 0.002565 -0.001036 0.001136 -14.487312 -54.379544 2.837361 28.669212 63.359259 24.228001 -11.314425 46.915978 -10.566388 -0.012488 -0.004930 -0.005533
-22.454959 126.420902 61.479642 175.123269 -28.295070 -2.988724 -0.637781 19.513567 1.277275 -0.117751 2.349793 0.166020 -0.158824 3.889391 0.268382 -0.568499 16.868038 1.110951 4.334480 20.939268 -0.233304 4.684308 -3.363605 -1.224703 -6.341650 -0.299920 0.401241 -7.607897 -2.950874 -3.992651 111.670299 -79.296086 -96.129302 -6.703963 -19.238987 -33.269270 -6.475923 1.304593 0.617936 10.682165 -6.378623 4.462460 19.131470 -82.708438 -21.019516 -3.677811 -25.196472 24.694377 -8.933536 -50.040641 7.484813 -164.842553 75.209107 -157.425747 10.992627 -21.379884 -10.216469 0.001689 -0.001813 0.000748 -14.503849 -54.414212 2.891765 28.672440 63.365648 24.167001 -11.355272 46.981329 -10.562354 -0.006826 -0.009522 -0.003024
-22.456209 126.419534 61.477866 175.148008 -28.272350 -2.995764 -0.633346 19.510660 1.281456 -0.118381 2.347060 0.164493 -0.157620 3.886724 0.268392 -0.542557 16.875196 1.113822 4.272678 20.954253 -0.229028 4.638439 -3.339450 -1.220883 -6.369508 -0.309911 0.430832 -7.598365 -2.984801 -3.995385 111.707531 -79.291260 -96.191042 -6.677025 -19.288317 -33.360228 -6.501706 1.279604 0.623334 10.674823 -6.413786 4.479239 19.193385 -82.744148 -21.078123 -3.682254 -25.175021 24.699882 -8.925563 -50.061535 7.475457 -164.849798 75.201711 -157.426884 10.983602 -21.391795 -10.207285 0.000527 -0.003036 0.000234 -14.496733 -54.438062 2.894983 28.662171 63.371280 24.137351 -11.360402 47.020734 -10.592744 -0.004411 -0.006671 -0.001954
-22.457180 126.418170 61.476645 175.176362 -28.248256 -3.007009 -0.627263 19.511301 1.290571 -0.118267 2.342404 0.163460 -0.157034 3.885345 0.269227 -0.543328 16.877792 1.120808 4.230869 20.966805 -0.232795 4.601917 -3.321805 -1.219105 -6.378472 -0.325736 0.444841 -7.585456 -3.007600 -3.998484 111.943693 -79.277210 -96.450630 -6.654957 -19.299983 -33.438402 -6.511410 1.255819 0.615611 10.658024 -6.444165 4.496374 19.186961 -82.741856 -21.066481 -3.694373 -25.195182 24.722082 -8.930655 -50.082252 7.471421 -164.846448 75.193945 -157.418083 10.982488 -21.401492 -10.201897 0.000583 -0.003860 0.000258 -14.514608 -54.460739 2.898398 28.660925 63.373907 24.129783 -11.363624 47.025717 -10.591754 -0.000038 -0.010292 -0.000017
-22.457313 126.417122 61.475457 175.199206 -28.227199 -3.021336 -0.636248 19.500549 1.298522 -0.107596 2.351089 0.165805 -0.157864 3.885079 0.270347 -0.551326 16.872890 1.120898 4.206494 20.987290 -0.240472 4.572365 -3.305588 -1.219043 -6.383509 -0.337635 0.450188 -7.554351 -3.020293 -4.000399 112.458550 -79.244869 -96.994629 -6.648464 -19.254203 -33.497158 -6.509670 1.233211 0.602011 10.601429 -6.495333 4.517635 19.126112 -82.710661 -20.958583 -3.705631 -25.209166 24.741117 -8.943663 -50.099011 7.477858 -164.830922 75.189806 -157.396577 10.983705 -21.405442 -10.199331 0.001946 -0.005113 0.000862 -14.383065 -54.475417 2.830100 28.553241 63.396099 24.055028 -11.343746 47.008545 -10.549544 0.012349 -0.007937 0.005471
-22.458506 126.416251 61.474101 175.219915 -28.208891 -3.029075 -0.645684 19.492644 1.299747 -0.098323 2.360558 0.165776 -0.158249 3.884555 0.270878 -0.564964 16.858610 1.123042 4.193913 21.018728 -0.251856 4.552932 -3.303070 -1.216970 -6.359126 -0.339340 0.452848 -7.537200 -3.031856 -4.002137 112.788980 -79.220038 -97.358906 -6.644120 -19.220938 -33.533878 -6.500740 1.215447 0.586585 10.562903 -6.510780 4.535835 19.154348 -82.734047 -20.948728 -3.709642 -25.193818 24.745609 -8.965456 -50.114105 7.484666 -164.815264 75.185474 -157.386159 10.984133 -21.409706 -10.195292 0.001911 -0.006614 0.000847 -14.266190 -54.485218 2.754942 28.493247 63.410201 24.018209 -11.307831 46.974551 -10.483639 0.017240 -0.003808 0.007638
-22.460756 126.416002 61.471619 175.234254 -28.199769 -3.027958 -0.617321 19.520280 1.303990 -0.098300 2.361158 0.166395 -0.176030 3.866838 0.272781 -0.566083 16.858523 1.125077 4.171538 21.034821 -0.259740 4.548788 -3.327591 -1.209756 -6.318119 -0.363129 0.456429 -7.573453 -3.031603 -3.997297 113.052452 -79.198688 -97.635527 -6.648508 -19.175698 -33.552241 -6.504799 1.171558 0.565557 10.515938 -6.518386 4.567060 19.157825 -82.755327 -20.912284 -3.718581 -25.174067 24.750399 -8.983563 -50.121101 7.489726 -164.786524 75.174028 -157.380448 10.983913 -21.423063 -10.177702 -0.003431 -0.006746 -0.001520 -14.154964 -54.484282 2.672753 28.440898 63.423841 23.984556 -11.237893 46.911305 -10.425372 0.017113 -0.006486 0.007582
-22.463478 126.416020 61.468656 175.239106 -28.195663 -3.020470 -0.612435 19.529238 1.297373 -0.095864 2.366338 0.166061 -0.171272 3.866880 0.273204 -0.548613 16.881960 1.127472 4.138079 21.026082 -0.266300 4.527393 -3.305630 -1.214223 -6.332579 -0.405990 0.469812 -7.526787 -3.044824 -3.992938 113.161902 -79.179793 -97.794629 -6.642150 -19.173530 -33.556119 -6.529773 1.109419 0.557057 10.475579 -6.530844 4.589106 19.203851 -82.807883 -20.899584 -3.716330 -25.116970 24.731974 -8.986156 -50.125485 7.483358 -164.774764 75.170026 -157.379155 10.983960 -21.426088 -10.173184 -0.003654 -0.007562 -0.001619 -14.063161 -54.481076 2.607182 28.504539 63.426124 24.026463 -11.199422 46.858576 -10.334264 0.002167 -0.000722 0.000960
-22.465490 126.413989 61.469778 175.255860 -28.165203 -3.026056 -0.617344 19.517846 1.297169 -0.100906 2.357205 0.167598 -0.162210 3.877201 0.273572 -0.555036 16.872865 1.129775 4.130768 21.043196 -0.279647 4.507535 -3.283116 -1.220589 -6.306398 -0.421088 0.466480 -7.489029 -3.058984 -3.985120 113.205126 -79.167908 -97.891409 -6.645245 -19.179749 -33.477426 -6.534088 1.089731 0.550312 10.444080 -6.554438 4.594168 19.142135 -82.815932 -20.795738 -3.714620 -25.091773 24.720849 -9.016438 -50.154063 7.496365 -164.762381 75.169274 -157.374986 10.978162 -21.427443 -10.173614 -0.004170 -0.006738 -0.001848 -14.059442 -54.506193 2.600662 28.604984 63.417317 24.096869 -11.187884 46.818023 -10.290663 -0.009118 0.001361 -0.004040
-22.466919 126.412908 61.469210 175.262790 -28.148004 -3.030685 -0.610162 19.524387 1.299911 -0.108572 2.342958 0.170011 -0.156661 3.887512 0.273097 -0.556776 16.863824 1.133372 4.127275 21.051236 -0.292570 4.490850 -3.265269 -1.230774 -6.284515 -0.439649 0.462404 -7.487851 -3.060612 -3.979394 113.333032 -79.157364 -98.032148 -6.660194 -19.165569 -33.386335 -6.533761 1.057125 0.531398 10.411046 -6.568716 4.613004 19.064810 -82.820494 -20.684366 -3.713522 -25.067859 24.712306 -9.076982 -50.165345 7.546568 -164.704730 75.168053 -157.354948 10.972252 -21.432081 -10.166743 -0.003866 -0.006377 -0.001713 -13.996524 -54.512420 2.558334 28.646329 63.399091 24.145283 -11.200335 46.785729 -10.285578 -0.011439 0.000846 -0.005069
-22.468903 126.412457 61.467371 175.265584 -28.140041 -3.030112 -0.606377 19.530939 1.298185 -0.101497 2.348312 0.170259 -0.155503 3.888398 0.274188 -0.550312 16.865663 1.138847 4.114393 21.037300 -0.302626 4.482728 -3.270517 -1.263642 -6.272010 -0.469949 0.460364 -7.445688 -3.086517 -3.976863 113.237888 -79.161381 -97.991413 -6.672503 -19.152874 -33.307330 -6.544589 1.013763 0.518479 10.385775 -6.576275 4.631121 19.037552 -82.827878 -20.633192 -3.718254 -25.056427 24.704014 -9.088653 -50.171928 7.555772 -164.690744 75.167248 -157.351811 10.967525 -21.435398 -10.161387 -0.004011 -0.006614 -0.001777 -13.976013 -54.512931 2.539347 28.749348 63.371149 24.230360 -11.228988 46.771516 -10.271270 -0.015819 0.001820 -0.007009
-22.470129 126.411884 61.466020 175.269051 -28.130332 -3.034831 -0.606918 19.526245 1.301421 -0.090864 2.380722 0.166410 -0.159984 3.871964 0.276800 -0.539805 16.880464 1.141829 4.106674 21.001387 -0.309086 4.483287 -3.291354 -1.272376 -6.260512 -0.505809 0.462657 -7.404846 -3.124523 -3.975657 113.021955 -79.175641 -97.831853 -6.677676 -19.160911 -33.223052 -6.552988 0.966971 0.515278 10.372646 -6.575488 4.644619 19.075655 -82.840108 -20.660009 -3.729070 -25.047726 24.717366 -9.105046 -50.179490 7.570390 -164.678668 75.167831 -157.346013 10.965109 -21.436686 -10.160257 -0.003212 -0.007316 -0.001423 -14.018578 -54.521062 2.577208 28.880427 63.349226 24.317318 -11.268472 46.762986 -10.271589 -0.016411 -0.000538 -0.007271
-22.470869 126.409860 61.467770 175.277531 -28.101172 -3.046010 -0.607888 19.515397 1.309015 -0.089061 2.377930 0.166468 -0.160265 3.874697 0.277555 -0.542516 16.867043 1.144212 4.108166 20.995018 -0.312819 4.489687 -3.320070 -1.284200 -6.237600 -0.508966 0.458924 -7.387251 -3.157451 -3.977220 113.001616 -79.175410 -97.824299 -6.681844 -19.146927 -33.161091 -6.541734 0.948802 0.497643 10.341626 -6.593727 4.660457 18.985261 -82.820964 -20.553665 -3.733612 -25.053352 24.729878 -9.131347 -50.204779 7.598881 -164.651864 75.171991 -157.326626 10.960821 -21.437390 -10.158194 -0.002241 -0.005238 -0.000993 -14.100246 -54.548278 2.649728 28.984370 63.332783 24.372570 -11.299332 46.749612 -10.301782 -0.016420 -0.002544 -0.007275
-22.472403 126.409670 61.466236 175.283469 -28.095538 -3.048797 -0.606437 19.525282 1.309729 -0.089686 2.372404 0.165763 -0.159492 3.880097 0.279275 -0.542314 16.866669 1.146952 4.106227 20.976610 -0.316818 4.499403 -3.353142 -1.293521 -6.211613 -0.520749 0.456139 -7.382929 -3.189521 -3.981629 113.023513 -79.167509 -97.856039 -6.693151 -19.126691 -33.093343 -6.528933 0.917537 0.477157 10.317035 -6.608563 4.675744 18.962740 -82.819409 -20.518868 -3.738338 -25.045621 24.734483 -9.137159 -50.207503 7.608055 -164.611994 75.172941 -157.296413 10.965380 -21.439003 -10.151205 -0.001003 -0.003891 -0.000444 -14.138475 -54.553268 2.680714 29.023330 63.319810 24.385828 -11.320383 46.744455 -10.382729 -0.019799 -0.007817 -0.008771
-22.472830 126.409170 61.465868 175.294953 -28.084705 -3.060149 -0.605653 19.526792 1.315100 -0.096073 2.363459 0.168914 -0.154692 3.889228 0.275927 -0.545527 16.881475 1.141164 4.114026 20.938031 -0.313202 4.511749 -3.382895 -1.297992 -6.195596 -0.548679 0.472463 -7.369649 -3.213169 -3.995315 113.036077 -79.160323 -97.870688 -6.703323 -19.110788 -33.029064 -6.518300 0.879604 0.475449 10.310177 -6.644982 4.669982 18.974895 -82.823384 -20.502606 -3.744667 -25.013188 24.717212 -9.138055 -50.218159 7.623105 -164.599328 75.186971 -157.288283 10.950491 -21.427735 -10.131175 -0.001352 -0.002956 -0.000599 -14.194766 -54.563155 2.725841 29.038184 63.315368 24.378392 -11.334711 46.744787 -10.410160 -0.017243 -0.004210 -0.007639
-22.472738 126.408803 61.465864 175.327312 -28.073105 -3.083202 -0.613118 19.534782 1.320213 -0.104249 2.356396 0.175068 -0.155672 3.890816 0.276043 -0.553241 16.877945 1.140359 4.126350 20.918158 -0.314816 4.525048 -3.416728 -1.303499 -6.171194 -0.560827 0.479783 -7.364965 -3.230309 -4.011010 113.089863 -79.150386 -97.918998 -6.716089 -19.086385 -33.016786 -6.508393 0.859181 0.467090 10.306557 -6.653854 4.673747 18.907771 -82.821528 -20.432495 -3.745278 -25.019320 24.738661 -9.171251 -50.226328 7.638087 -164.592326 75.195531 -157.282805 10.943021 -21.418422 -10.122220 -0.004141 -0.005027 -0.001835 -14.318955 -54.566799 2.834298 29.027669 63.319121 24.312913 -11.362649 46.744179 -10.453243 -0.002819 0.001080 -0.001249
